<svg xmlns="http://www.w3.org/2000/svg" viewBox="0 0 300 150"><defs><style>.cls-1{fill:none;stroke:#000f66;stroke-linecap:round;stroke-miterlimit:10;stroke-width:17px;}.cls-2{fill:red;}.cls-3{fill:#000f66;}</style></defs><g id="Layer_2" data-name="Layer 2"><path class="cls-1" d="M121.34,36a55.66,55.66,0,1,0,16,39.57"/><path class="cls-2" d="M133.27,61.15a6.93,6.93,0,1,1,5.94-3.38A6.88,6.88,0,0,1,133.27,61.15Z"/><path class="cls-2" d="M133.28,49.33a4.91,4.91,0,1,1,0,9.82,5,5,0,0,1-2.51-.69,4.91,4.91,0,0,1,2.52-9.13m0-4h0a8.9,8.9,0,1,0,4.56,1.25,9,9,0,0,0-4.56-1.25Z"/><path class="cls-3" d="M71,52.68V66a2.64,2.64,0,0,0,2.64,2.64H90.27A2.64,2.64,0,0,0,92.91,66V52.68a6.63,6.63,0,0,1,6.63-6.63h0a6.62,6.62,0,0,1,6.62,6.63V98.2a6.62,6.62,0,0,1-6.62,6.62h0a6.62,6.62,0,0,1-6.63-6.62V82.87a2.64,2.64,0,0,0-2.64-2.64H73.66A2.64,2.64,0,0,0,71,82.87V98.2a6.62,6.62,0,0,1-6.62,6.62h-.09a6.62,6.62,0,0,1-6.63-6.62V52.68a6.63,6.63,0,0,1,6.63-6.63h.09A6.62,6.62,0,0,1,71,52.68Z"/><path d="M166.1,26.94h6V69.79h-6Zm3.74,18.89h23.78v5.72H169.84Zm20.6-18.89h6V69.79h-6Z"/><path d="M213.38,68.36a12.23,12.23,0,0,1-5.14-5.45,19.26,19.26,0,0,1-1.77-8.62V26.94h6V54.5q0,4.68,2.35,7.25a8.58,8.58,0,0,0,6.66,2.56,8.68,8.68,0,0,0,6.71-2.56q2.37-2.56,2.37-7.25V26.94h6V54.29a19.26,19.26,0,0,1-1.77,8.62,12.25,12.25,0,0,1-5.15,5.45,18.58,18.58,0,0,1-16.29,0Z"/><path d="M246,26.94h6V69.79h-6Zm3.54,37.28h11.61q4.56,0,6.66-1.74a6,6,0,0,0,2.09-4.89V57.5a8.57,8.57,0,0,0-.75-3.74,5.2,5.2,0,0,0-2.37-2.4,9,9,0,0,0-4.16-.84H249.56V45.1h13.08a7.2,7.2,0,0,0,5-1.56,6,6,0,0,0,1.69-4.63,6,6,0,0,0-1.88-4.8q-1.89-1.61-5.66-1.6H249.56V26.94h13.35a15.33,15.33,0,0,1,6.95,1.42,9.36,9.36,0,0,1,4.19,4,13,13,0,0,1,1.38,6.19,10.12,10.12,0,0,1-.85,4.14A8.63,8.63,0,0,1,272,46a9.89,9.89,0,0,1-4.35,1.84,9.37,9.37,0,0,1,4.48,1.84A9.61,9.61,0,0,1,275,53.32,11.13,11.13,0,0,1,276,58v.08a12,12,0,0,1-1.53,6.13,10.25,10.25,0,0,1-4.39,4.1,14.65,14.65,0,0,1-6.66,1.44H249.56Z"/><path d="M213.55,120.65a13.42,13.42,0,0,1-5.29-5.55,17.59,17.59,0,0,1-1.87-8.29V94.67a17.63,17.63,0,0,1,1.87-8.3,13.4,13.4,0,0,1,5.29-5.54,16.88,16.88,0,0,1,15.79,0,13.34,13.34,0,0,1,5.29,5.54,17.64,17.64,0,0,1,1.88,8.3v12.14a17.6,17.6,0,0,1-1.88,8.29,13.36,13.36,0,0,1-5.29,5.55,17,17,0,0,1-15.79,0Zm12.57-5.16a8.13,8.13,0,0,0,3.12-3.39,11.11,11.11,0,0,0,1.11-5.08V94.46a11.11,11.11,0,0,0-1.11-5.08A8,8,0,0,0,226.12,86a9.76,9.76,0,0,0-9.34,0,8,8,0,0,0-3.13,3.39,11.24,11.24,0,0,0-1.1,5.08V107a11.24,11.24,0,0,0,1.1,5.08,8.09,8.09,0,0,0,3.13,3.39,9.76,9.76,0,0,0,9.34,0Z"/><path d="M174,121.22a13.69,13.69,0,0,1-5.33-3.89l5.63-3.54A6.17,6.17,0,0,0,177,116a10.11,10.11,0,0,0,4.15.8,8.49,8.49,0,0,0,6.22-2.18,8.25,8.25,0,0,0,2.21-6.13V79.31h6.88v29.24a15.2,15.2,0,0,1-1.79,7.6,11.57,11.57,0,0,1-5.23,4.8,19,19,0,0,1-8.29,1.65A18.27,18.27,0,0,1,174,121.22Z"/><path d="M246,79.31h6v42.85h-6Zm3.54,37.28h11.61q4.56,0,6.66-1.74a6,6,0,0,0,2.09-4.89v-.09a8.57,8.57,0,0,0-.75-3.74,5.2,5.2,0,0,0-2.37-2.4,9.05,9.05,0,0,0-4.16-.84H249.53V97.47h13.08a7.13,7.13,0,0,0,5-1.57,7.1,7.1,0,0,0-.19-9.43c-1.25-1.06-3.14-1.59-5.65-1.59H249.53V79.31h13.35a15.23,15.23,0,0,1,6.95,1.42,9.34,9.34,0,0,1,4.18,4,12.85,12.85,0,0,1,1.39,6.18,10.06,10.06,0,0,1-.85,4.14,8.59,8.59,0,0,1-2.61,3.31,9.89,9.89,0,0,1-4.35,1.84,9.41,9.41,0,0,1,4.48,1.84,9.53,9.53,0,0,1,2.89,3.64,11.09,11.09,0,0,1,1,4.71v.09a12,12,0,0,1-1.53,6.13,10.31,10.31,0,0,1-4.39,4.1,14.65,14.65,0,0,1-6.66,1.44H249.53Z"/></g></svg>