<svg xmlns="http://www.w3.org/2000/svg" viewBox="0 0 300 150"><defs><style>.cls-1{fill:#fff;}.cls-2{fill:red;}</style></defs><g id="Layer_2" data-name="Layer 2"><path class="cls-1" d="M137.38,67h-.08a8.49,8.49,0,0,0-8.49,8.42,47.12,47.12,0,1,1-13.53-33.53A8.5,8.5,0,1,0,127.41,30a64.2,64.2,0,1,0-71,104,64.24,64.24,0,0,0,89.4-58.43A8.5,8.5,0,0,0,137.38,67Z"/><path class="cls-2" d="M125.62,49.68a8.93,8.93,0,1,0,7.66-4.35h0A9,9,0,0,0,125.62,49.68Z"/><path class="cls-1" d="M99.54,104.82a6.62,6.62,0,0,0,6.62-6.62V52.68a6.63,6.63,0,1,0-13.25,0V66a2.64,2.64,0,0,1-2.64,2.64H73.66A2.64,2.64,0,0,1,71,66V52.68a6.62,6.62,0,0,0-6.62-6.63h-.09a6.63,6.63,0,0,0-6.63,6.63V98.2a6.62,6.62,0,0,0,6.63,6.62h.09A6.62,6.62,0,0,0,71,98.2V82.87a2.64,2.64,0,0,1,2.64-2.64H90.27a2.64,2.64,0,0,1,2.64,2.64V98.2A6.62,6.62,0,0,0,99.54,104.82Z"/><polygon class="cls-1" points="190.44 45.83 172.11 45.83 172.11 26.94 166.1 26.94 166.1 69.79 172.11 69.79 172.11 51.55 190.44 51.55 190.44 69.79 196.45 69.79 196.45 26.94 190.44 26.94 190.44 45.83"/><path class="cls-1" d="M230.58,54.5q0,4.68-2.37,7.25a8.7,8.7,0,0,1-6.71,2.56,8.58,8.58,0,0,1-6.66-2.56q-2.35-2.56-2.36-7.25V26.94h-6V54.29a19.26,19.26,0,0,0,1.77,8.62,12.23,12.23,0,0,0,5.14,5.45,18.58,18.58,0,0,0,16.29,0,12.25,12.25,0,0,0,5.15-5.45,19.26,19.26,0,0,0,1.77-8.62V26.94h-6Z"/><path class="cls-1" d="M275,53.32a9.61,9.61,0,0,0-2.89-3.64,9.37,9.37,0,0,0-4.48-1.84A9.89,9.89,0,0,0,272,46a8.63,8.63,0,0,0,2.61-3.3,10.12,10.12,0,0,0,.85-4.14,13,13,0,0,0-1.38-6.19,9.41,9.41,0,0,0-4.19-4,15.33,15.33,0,0,0-6.95-1.42H246V69.79h17.39a14.65,14.65,0,0,0,6.66-1.44,10.25,10.25,0,0,0,4.39-4.1A12,12,0,0,0,276,58.12V58A11.13,11.13,0,0,0,275,53.32ZM261.82,32.51q3.76,0,5.66,1.6a6,6,0,0,1,1.88,4.8,6,6,0,0,1-1.69,4.63,7.2,7.2,0,0,1-5,1.56H252V32.51Zm8.1,25.08a6,6,0,0,1-2.09,4.89q-2.1,1.74-6.66,1.74H252V50.52h10.64a9,9,0,0,1,4.16.84,5.2,5.2,0,0,1,2.37,2.4,8.57,8.57,0,0,1,.75,3.74Z"/><path class="cls-1" d="M229.34,80.83a16.88,16.88,0,0,0-15.79,0,13.4,13.4,0,0,0-5.29,5.54,17.63,17.63,0,0,0-1.87,8.3v12.14a17.59,17.59,0,0,0,1.87,8.29,13.42,13.42,0,0,0,5.29,5.55,17,17,0,0,0,15.79,0,13.36,13.36,0,0,0,5.29-5.55,17.6,17.6,0,0,0,1.88-8.29V94.67a17.64,17.64,0,0,0-1.88-8.3A13.34,13.34,0,0,0,229.34,80.83Zm1,26.19a11.11,11.11,0,0,1-1.11,5.08,8.13,8.13,0,0,1-3.12,3.39,9.78,9.78,0,0,1-9.35,0,8.13,8.13,0,0,1-3.12-3.39,11.11,11.11,0,0,1-1.1-5.08V94.46a11.11,11.11,0,0,1,1.1-5.08A8,8,0,0,1,216.77,86a9.78,9.78,0,0,1,9.35,0,8,8,0,0,1,3.12,3.39,11.11,11.11,0,0,1,1.11,5.08Z"/><path class="cls-1" d="M189.57,108.52a8.25,8.25,0,0,1-2.21,6.13,8.49,8.49,0,0,1-6.22,2.18A10.11,10.11,0,0,1,177,116a6.17,6.17,0,0,1-2.73-2.24l-5.63,3.54a13.62,13.62,0,0,0,5.33,3.89,18.27,18.27,0,0,0,7.18,1.38,19,19,0,0,0,8.29-1.65,11.57,11.57,0,0,0,5.23-4.8,15.2,15.2,0,0,0,1.79-7.6V79.31h-6.88Z"/><path class="cls-1" d="M272.07,102.05a9.41,9.41,0,0,0-4.48-1.84,9.89,9.89,0,0,0,4.35-1.84,8.59,8.59,0,0,0,2.61-3.31,10.22,10.22,0,0,0,.85-4.14A12.85,12.85,0,0,0,274,84.74a9.34,9.34,0,0,0-4.18-4,15.24,15.24,0,0,0-7-1.42H246v42.85h17.39a14.65,14.65,0,0,0,6.66-1.44,10.31,10.31,0,0,0,4.39-4.1,12,12,0,0,0,1.53-6.13v-.09a11.09,11.09,0,0,0-1-4.71A9.53,9.53,0,0,0,272.07,102.05ZM261.78,84.88q3.78,0,5.66,1.59a7.1,7.1,0,0,1,.19,9.43,7.13,7.13,0,0,1-5,1.57H252V84.88ZM269.89,110a6,6,0,0,1-2.09,4.89q-2.1,1.74-6.66,1.74H252v-13.7h10.64a9.05,9.05,0,0,1,4.16.84,5.2,5.2,0,0,1,2.37,2.4,8.57,8.57,0,0,1,.75,3.74Z"/></g></svg>