<?xml version="1.0" encoding="utf-8"?>
<!-- Generator: Adobe Illustrator 28.1.0, SVG Export Plug-In . SVG Version: 6.00 Build 0)  -->
<svg version="1.1" id="Layer_1" xmlns="http://www.w3.org/2000/svg" xmlns:xlink="http://www.w3.org/1999/xlink" x="0px" y="0px"
	 viewBox="0 0 857 375" style="enable-background:new 0 0 857 375;" xml:space="preserve">
<style type="text/css">
	.st0{fill:url(#SVGID_1_);}
	.st1{fill:url(#SVGID_00000125586193166148820720000006617716151511762569_);}
	.st2{fill:#F1F1F1;}
</style>
<g>
	<g>
		<g>
			
				<radialGradient id="SVGID_1_" cx="262.6927" cy="176.8056" r="255.5443" gradientTransform="matrix(0.9784 0.2069 -0.1116 0.5279 25.4179 29.1297)" gradientUnits="userSpaceOnUse">
				<stop  offset="0" style="stop-color:#2730CD"/>
				<stop  offset="1" style="stop-color:#FFFFFF"/>
			</radialGradient>
			<path class="st0" d="M373.5,53.5c0,21.3-50.1,39.5-119.9,46.2V17.9c0-5.7,5-10.2,10.7-9.5C328.5,15.9,373.5,33.2,373.5,53.5z"/>
			
				<radialGradient id="SVGID_00000176018941058676459560000013174665435014746537_" cx="253.5686" cy="176.8056" r="255.5443" gradientTransform="matrix(-0.9784 0.2069 0.1116 0.5279 353.1584 31.0172)" gradientUnits="userSpaceOnUse">
				<stop  offset="0" style="stop-color:#2730CD"/>
				<stop  offset="1" style="stop-color:#FFFFFF"/>
			</radialGradient>
			<path style="fill:url(#SVGID_00000176018941058676459560000013174665435014746537_);" d="M14,53.5c0,21.3,50.1,39.5,119.9,46.2
				V17.9c0-5.7-5-10.2-10.7-9.5C59,15.9,14,33.2,14,53.5z"/>
		</g>
		<g>
			<path class="st2" d="M598.2,53.5v123.5h-23.6v-53.5H517v53.5h-23.6V53.5H517V104h57.6V53.5H598.2z"/>
			<path class="st2" d="M726.7,53.5v75c0,30.1-20.6,49.8-50.7,49.8c-30.7,0-51.1-19.6-51.1-49.8v-75h23.6v74.8
				c0,18.7,11.2,29.4,27.5,29.4c15.9,0,27.1-10.7,27.1-29.2v-75H726.7z"/>
			<path class="st2" d="M847.1,143.4c0,21.3-15.2,33.5-42.3,33.5h-51.6V53.5h46.6c26.2,0,41.9,12,41.9,33.3
				c0,18.3-12.7,24.1-19.8,25.3v0.6C830.3,113.9,847.1,122.1,847.1,143.4z M795.3,71.8h-18.7v33.7H797c13.8,0,21.1-6.9,21.1-16.6
				C818.1,77.8,810.8,71.8,795.3,71.8z M823.4,140.8c0-12.7-10.3-18.9-24.1-18.9h-22.6v36.7h24.3C814,158.6,823.4,153,823.4,140.8z"
				/>
			<path class="st2" d="M555.7,300c12.3,0,18.9-5.2,18.9-19.1V196h23.6v84.4c0,26.7-16.6,40.2-42.1,40.2c-16.1,0-27.5-8-33.1-13.1
				l14-16.6C540.7,295,547.1,300,555.7,300z"/>
			<path class="st2" d="M735.2,257.7c0,38.5-24.5,62.9-59.5,62.9c-34.6,0-59.3-24.3-59.3-62.9c0-38.7,24.7-63,59.3-63
				C710.7,194.7,735.2,219,735.2,257.7z M711.4,257.7c0-26.6-15-42.5-35.7-42.5c-20.6,0-35.5,15.9-35.5,42.5
				c0,26.4,15,42.5,35.5,42.5C696.5,300.2,711.4,284.1,711.4,257.7z"/>
			<path class="st2" d="M847.1,286c0,21.3-15.2,33.5-42.3,33.5h-51.6V196h46.6c26.2,0,41.9,12,41.9,33.3c0,18.3-12.7,24.1-19.8,25.3
				v0.6C830.3,256.4,847.1,264.7,847.1,286z M795.3,214.3h-18.7V248H797c13.8,0,21.1-6.9,21.1-16.6
				C818.1,220.3,810.8,214.3,795.3,214.3z M823.4,283.4c0-12.7-10.3-18.9-24.1-18.9h-22.6v36.7h24.3
				C814,301.1,823.4,295.5,823.4,283.4z"/>
		</g>
	</g>
	<path class="st2" d="M253.6,99.6L253.6,99.6L253.6,99.6c-18.7,1.8-38.9,2.8-59.8,2.8c-21,0-41.1-1-59.8-2.8
		C64.1,92.9,14,74.8,14,53.5v107.3v59.9v99.8c0,20.2,45,37.6,109.2,45c5.7,0.7,10.7-3.8,10.7-9.5v-81.7V268
		c18.7,2.3,38.9,3.5,59.8,3.5c21,0,41.1-1.2,59.8-3.5l0,0v6.4v81.7c0,5.7,5,10.2,10.7,9.5c64.2-7.5,109.2-24.8,109.2-45v-99.8v-59.9
		V53.5C373.5,74.8,323.4,92.9,253.6,99.6z"/>
</g>
</svg>
