<?xml version="1.0" encoding="utf-8"?>
<!-- Generator: Adobe Illustrator 28.1.0, SVG Export Plug-In . SVG Version: 6.00 Build 0)  -->
<svg version="1.1" id="Layer_1" xmlns="http://www.w3.org/2000/svg" xmlns:xlink="http://www.w3.org/1999/xlink" x="0px" y="0px"
	 viewBox="0 0 857 375" style="enable-background:new 0 0 857 375;" xml:space="preserve">
<style type="text/css">
	.st0{fill:url(#SVGID_1_);}
	.st1{fill:url(#SVGID_00000114787030673499576400000009535845135407482513_);}
	.st2{fill:#2730CD;}
</style>
<g>
	<g>
		<g>
			
				<radialGradient id="SVGID_1_" cx="264.1998" cy="177.2524" r="256.7589" gradientTransform="matrix(0.9784 0.2069 -0.1116 0.5279 25.5004 29.0288)" gradientUnits="userSpaceOnUse">
				<stop  offset="0" style="stop-color:#FFFFFF"/>
				<stop  offset="1" style="stop-color:#2730CD"/>
			</radialGradient>
			<path class="st0" d="M375.5,53.3c0,21.4-50.3,39.6-120.5,46.4V17.6c0-5.8,5.1-10.2,10.8-9.5C330.3,15.6,375.5,33,375.5,53.3z"/>
			
				<radialGradient id="SVGID_00000136404651809140752850000012772755502571388343_" cx="252.7168" cy="177.2524" r="256.7589" gradientTransform="matrix(-0.9784 0.2069 0.1116 0.5279 353.127 31.4044)" gradientUnits="userSpaceOnUse">
				<stop  offset="0" style="stop-color:#FFFFFF"/>
				<stop  offset="1" style="stop-color:#2730CD"/>
			</radialGradient>
			<path style="fill:url(#SVGID_00000136404651809140752850000012772755502571388343_);" d="M14.3,53.3c0,21.4,50.3,39.6,120.5,46.4
				V17.6c0-5.8-5.1-10.2-10.8-9.5C59.5,15.6,14.3,33,14.3,53.3z"/>
		</g>
		<g>
			<path class="st2" d="M601.3,53.3v124h-23.7v-53.8h-57.9v53.8H496v-124h23.7v50.7h57.9V53.3H601.3z"/>
			<path class="st2" d="M730.4,53.3v75.4c0,30.3-20.7,50-50.9,50c-30.8,0-51.3-19.7-51.3-50V53.3h23.7v75.2
				c0,18.8,11.3,29.5,27.6,29.5c16,0,27.3-10.7,27.3-29.3V53.3H730.4z"/>
			<path class="st2" d="M851.4,143.7c0,21.4-15.2,33.6-42.5,33.6h-51.9v-124h46.8c26.3,0,42.1,12,42.1,33.5
				c0,18.4-12.8,24.2-19.9,25.4v0.6C834.5,114,851.4,122.3,851.4,143.7z M799.4,71.7h-18.8v33.8H801c13.9,0,21.2-7,21.2-16.7
				C822.3,77.8,815,71.7,799.4,71.7z M827.5,141.1c0-12.8-10.3-19-24.2-19h-22.7V159H805C818.1,159,827.5,153.3,827.5,141.1z"/>
			<path class="st2" d="M558.6,301.1c12.4,0,19-5.3,19-19.2v-85.3h23.7v84.8c0,26.9-16.7,40.4-42.3,40.4c-16.2,0-27.6-8.1-33.3-13.2
				l14.1-16.7C543.6,296,550,301.1,558.6,301.1z"/>
			<path class="st2" d="M738.9,258.6c0,38.7-24.6,63.2-59.8,63.2c-34.8,0-59.6-24.4-59.6-63.2c0-38.9,24.8-63.3,59.6-63.3
				C714.3,195.2,738.9,219.7,738.9,258.6z M715.1,258.6c0-26.7-15-42.7-35.9-42.7c-20.7,0-35.7,16-35.7,42.7
				c0,26.5,15,42.7,35.7,42.7C700,301.2,715.1,285.1,715.1,258.6z"/>
			<path class="st2" d="M851.4,287c0,21.4-15.2,33.6-42.5,33.6h-51.9v-124h46.8c26.3,0,42.1,12,42.1,33.5
				c0,18.4-12.8,24.2-19.9,25.4v0.6C834.5,257.3,851.4,265.5,851.4,287z M799.4,215h-18.8v33.8H801c13.9,0,21.2-7,21.2-16.7
				C822.3,221,815,215,799.4,215z M827.5,284.3c0-12.8-10.3-19-24.2-19h-22.7v36.8H805C818.1,302.2,827.5,296.5,827.5,284.3z"/>
		</g>
	</g>
	<path class="st2" d="M255.1,99.7L255.1,99.7L255.1,99.7c-18.8,1.8-39,2.8-60.1,2.8c-21.1,0-41.3-1-60.1-2.8
		C64.6,93,14.3,74.7,14.3,53.3v107.9v60.2v100.3c0,20.3,45.2,37.8,109.7,45.3c5.7,0.7,10.8-3.8,10.8-9.5v-82.1v-6.4
		c18.8,2.3,39,3.5,60.1,3.5c21.1,0,41.3-1.2,60.1-3.5l0,0v6.4v82.1c0,5.8,5.1,10.2,10.8,9.5c64.5-7.5,109.7-24.9,109.7-45.3V221.4
		v-60.2V53.3C375.5,74.7,325.2,93,255.1,99.7z"/>
</g>
</svg>
