<svg xmlns="http://www.w3.org/2000/svg" xmlns:xlink="http://www.w3.org/1999/xlink" width="1080" zoomAndPan="magnify" viewBox="0 0 810 809.999993" height="1080" preserveAspectRatio="xMidYMid meet" version="1.0"><path fill="#2730cd" d="M 546.382812 268.265625 L 546.382812 394.609375 L 522.230469 394.609375 L 522.230469 339.816406 L 463.210938 339.816406 L 463.210938 394.609375 L 439.058594 394.609375 L 439.058594 268.265625 L 463.210938 268.265625 L 463.210938 320.042969 L 522.230469 320.042969 L 522.230469 268.265625 Z M 546.382812 268.265625 " fill-opacity="1" fill-rule="nonzero"/><path fill="#2730cd" d="M 677.855469 268.265625 L 677.855469 345.097656 C 677.855469 375.890625 656.722656 395.96875 625.929688 395.96875 C 594.535156 395.96875 573.703125 375.890625 573.703125 345.097656 L 573.703125 268.265625 L 597.855469 268.265625 L 597.855469 344.949219 C 597.855469 364.117188 609.328125 374.984375 626.082031 374.984375 C 642.382812 374.984375 653.855469 364.117188 653.855469 345.097656 L 653.855469 268.265625 Z M 677.855469 268.265625 " fill-opacity="1" fill-rule="nonzero"/><path fill="#2730cd" d="M 801.179688 360.496094 C 801.179688 382.382812 785.632812 394.761719 757.859375 394.761719 L 705.027344 394.761719 L 705.027344 268.417969 L 752.726562 268.417969 C 779.59375 268.417969 795.59375 280.644531 795.59375 302.53125 C 795.59375 321.25 782.613281 327.285156 775.21875 328.34375 L 775.21875 328.945312 C 783.972656 330.15625 801.179688 338.609375 801.179688 360.496094 Z M 748.199219 287.136719 L 729.027344 287.136719 L 729.027344 321.550781 L 749.859375 321.550781 C 764.046875 321.550781 771.445312 314.457031 771.445312 304.492188 C 771.59375 293.171875 764.046875 287.136719 748.199219 287.136719 Z M 776.878906 357.777344 C 776.878906 344.796875 766.3125 338.457031 752.121094 338.457031 L 728.875 338.457031 L 728.875 376.042969 L 753.78125 376.042969 C 767.367188 375.890625 776.878906 370.15625 776.878906 357.777344 Z M 776.878906 357.777344 " fill-opacity="1" fill-rule="nonzero"/><path fill="#2730cd" d="M 502.910156 520.800781 C 515.589844 520.800781 522.230469 515.367188 522.230469 501.328125 L 522.230469 414.382812 L 546.382812 414.382812 L 546.382812 500.726562 C 546.382812 528.046875 529.324219 541.933594 503.363281 541.933594 C 486.910156 541.933594 475.132812 533.632812 469.398438 528.5 L 483.738281 511.441406 C 487.511719 515.519531 494.003906 520.800781 502.910156 520.800781 Z M 502.910156 520.800781 " fill-opacity="1" fill-rule="nonzero"/><path fill="#2730cd" d="M 686.613281 477.480469 C 686.613281 516.875 661.554688 541.78125 625.78125 541.78125 C 590.308594 541.78125 565.097656 516.875 565.097656 477.480469 C 565.097656 437.78125 590.308594 412.875 625.78125 412.875 C 661.554688 412.875 686.613281 437.78125 686.613281 477.480469 Z M 662.308594 477.480469 C 662.308594 450.308594 646.914062 434.007812 625.78125 434.007812 C 604.648438 434.007812 589.402344 450.308594 589.402344 477.480469 C 589.402344 504.5 604.796875 520.953125 625.78125 520.953125 C 646.914062 520.953125 662.308594 504.5 662.308594 477.480469 Z M 662.308594 477.480469 " fill-opacity="1" fill-rule="nonzero"/><path fill="#2730cd" d="M 801.179688 506.460938 C 801.179688 528.347656 785.632812 540.726562 757.859375 540.726562 L 705.027344 540.726562 L 705.027344 414.382812 L 752.726562 414.382812 C 779.59375 414.382812 795.59375 426.609375 795.59375 448.496094 C 795.59375 467.214844 782.613281 473.253906 775.21875 474.308594 L 775.21875 474.914062 C 783.972656 476.121094 801.179688 484.574219 801.179688 506.460938 Z M 748.199219 433.101562 L 729.027344 433.101562 L 729.027344 467.515625 L 749.859375 467.515625 C 764.046875 467.515625 771.445312 460.421875 771.445312 450.460938 C 771.59375 439.136719 764.046875 433.101562 748.199219 433.101562 Z M 776.878906 503.742188 C 776.878906 490.761719 766.3125 484.421875 752.121094 484.421875 L 728.875 484.421875 L 728.875 522.007812 L 753.78125 522.007812 C 767.367188 521.855469 776.878906 516.121094 776.878906 503.742188 Z M 776.878906 503.742188 " fill-opacity="1" fill-rule="nonzero"/><path fill="#2730cd" d="M 192.261719 587.519531 C 167.65625 587.519531 143.203125 582.539062 119.957031 572.574219 C 74.671875 553.253906 39.652344 517.480469 21.386719 471.894531 C 2.972656 426.308594 3.578125 376.195312 22.898438 330.910156 C 62.746094 237.472656 171.277344 193.851562 264.5625 233.851562 C 286.902344 243.359375 306.828125 256.945312 323.734375 274.152344 C 331.585938 282.152344 331.433594 295.136719 323.433594 302.984375 C 315.433594 310.832031 302.453125 310.683594 294.601562 302.683594 C 281.46875 289.25 265.921875 278.683594 248.5625 271.285156 C 175.808594 240.191406 91.425781 274.152344 60.332031 346.910156 C 45.238281 382.082031 44.9375 421.175781 59.125 456.648438 C 73.464844 492.273438 100.636719 520.046875 135.957031 535.140625 C 171.128906 550.234375 210.222656 550.539062 245.695312 536.347656 C 281.167969 522.160156 309.09375 494.839844 324.1875 459.515625 C 331.734375 442.007812 335.507812 423.441406 335.8125 404.570312 C 335.960938 393.25 345.167969 384.34375 356.339844 384.34375 C 367.660156 384.496094 376.566406 393.703125 376.566406 404.875 C 376.414062 429.175781 371.433594 452.875 361.773438 475.367188 C 342.453125 520.648438 306.679688 555.667969 261.09375 573.933594 C 238.75 583.140625 215.355469 587.519531 192.261719 587.519531 Z M 192.261719 587.519531 " fill-opacity="1" fill-rule="nonzero"/><path fill="#e24563" d="M 354.679688 324.570312 C 351.507812 322.605469 347.886719 321.703125 344.265625 321.703125 C 337.019531 321.703125 330.375 325.476562 326.601562 331.664062 C 320.867188 341.324219 324.035156 354.003906 333.699219 359.742188 C 336.867188 361.703125 340.488281 362.609375 344.113281 362.609375 C 351.359375 362.609375 358 358.835938 361.773438 352.644531 C 367.660156 342.984375 364.492188 330.304688 354.679688 324.570312 Z M 354.679688 324.570312 " fill-opacity="1" fill-rule="nonzero"/><path fill="#2730cd" d="M 229.695312 384.042969 C 226.375 385.703125 222.449219 387.0625 218.375 388.117188 C 211.28125 389.929688 203.128906 391.136719 194.523438 391.136719 C 185.921875 391.136719 177.769531 390.082031 170.675781 388.117188 C 166.449219 387.0625 162.675781 385.703125 159.355469 384.042969 C 149.542969 379.363281 143.503906 372.722656 143.503906 365.476562 L 143.503906 402.609375 C 143.503906 412.421875 154.523438 420.875 170.675781 425.25 C 177.769531 427.0625 185.921875 428.269531 194.523438 428.269531 C 203.128906 428.269531 211.28125 427.214844 218.375 425.25 C 234.523438 421.023438 245.542969 412.421875 245.542969 402.609375 L 245.542969 365.476562 C 245.542969 372.722656 239.507812 379.363281 229.695312 384.042969 Z M 229.695312 384.042969 " fill-opacity="1" fill-rule="nonzero"/><path fill="#2730cd" d="M 163.128906 418.910156 L 163.128906 470.535156 C 163.128906 481.101562 154.675781 489.554688 144.109375 489.554688 L 143.804688 489.554688 C 133.238281 489.554688 124.785156 481.101562 124.785156 470.535156 L 124.785156 339.664062 C 124.785156 329.097656 133.238281 320.644531 143.804688 320.644531 L 144.109375 320.644531 C 154.675781 320.644531 163.128906 329.097656 163.128906 339.664062 L 163.128906 385.550781 M 226.070312 385.550781 L 226.070312 339.664062 C 226.070312 329.097656 234.523438 320.644531 245.089844 320.644531 C 255.65625 320.644531 264.109375 329.097656 264.109375 339.664062 L 264.109375 470.535156 C 264.109375 481.101562 255.65625 489.554688 245.089844 489.554688 C 234.523438 489.554688 226.070312 481.101562 226.070312 470.535156 L 226.070312 418.910156 " fill-opacity="1" fill-rule="nonzero"/></svg>